<?xml version="1.0" encoding="UTF-8"?>
<!DOCTYPE svg PUBLIC "-//W3C//DTD SVG 1.1//EN" "http://www.w3.org/Graphics/SVG/1.1/DTD/svg11.dtd">
<!-- Creator: CorelDRAW -->
<svg xmlns="http://www.w3.org/2000/svg" xml:space="preserve" width="82.1445mm" height="19.7733mm" version="1.1" style="shape-rendering:geometricPrecision; text-rendering:geometricPrecision; image-rendering:optimizeQuality; fill-rule:evenodd; clip-rule:evenodd"
viewBox="0 0 17710.36 4263.13"
 xmlns:xlink="http://www.w3.org/1999/xlink"
 xmlns:xodm="http://www.corel.com/coreldraw/odm/2003">
 <defs>
  <style type="text/css">
   <![CDATA[
    .fil1 {fill:#A0AF14}
    .fil0 {fill:#3B2A18;fill-rule:nonzero}
   ]]>
  </style>
 </defs>
 <g id="Слой_x0020_1">
  <metadata id="CorelCorpID_0Corel-Layer"/>
  <g id="_1722654677520">
   <path class="fil0" d="M4155.3 2869.49l0 -279.27 209.46 0c39.56,0 73.89,-7.85 102.97,-23.57 29.08,-15.7 51.79,-38.1 68.06,-67.2 16.3,-29.08 24.45,-63.41 24.45,-102.99 0,-40.71 -8.15,-75.63 -24.45,-104.72 -16.28,-29.08 -38.98,-51.21 -68.06,-66.32 -29.08,-15.14 -63.41,-22.68 -102.97,-22.68l-209.46 0 0 -279.29 200.72 0c109.37,0 203.91,18.33 283.62,55 79.71,36.65 141.09,89.3 184.17,157.95 43.03,68.65 64.57,150.7 64.57,246.11l0 27.92c0,94.26 -21.54,175.71 -64.57,244.36 -43.08,68.65 -104.46,121.6 -184.17,158.85 -79.71,37.21 -174.25,55.84 -283.62,55.84l-200.72 0zm-289.74 338.62l0 -1284.65 324.65 0 0 1284.65 -324.65 0zm1804.77 34.91c-116.36,0 -217.58,-20.07 -303.69,-60.22 -86.11,-40.14 -157.67,-93.1 -214.69,-158.83 -57.03,-65.76 -99.5,-137.01 -127.42,-213.81 -27.92,-76.8 -41.89,-151.29 -41.89,-223.43l0 -38.4c0,-80.29 14.55,-159.11 43.64,-236.51 29.08,-77.38 72.72,-147.49 130.91,-210.32 58.19,-62.85 130.03,-112.87 215.56,-150.12 85.53,-37.23 184.73,-55.84 297.59,-55.84 111.72,0 210.34,18.61 295.85,55.84 85.53,37.26 157.39,87.27 215.56,150.12 58.21,62.83 102.11,132.94 131.8,210.32 29.69,77.4 44.5,156.22 44.5,236.51l0 38.4c0,72.14 -14.25,146.63 -42.75,223.43 -28.5,76.8 -71.28,148.05 -128.28,213.81 -57.03,65.74 -128.58,118.69 -214.69,158.83 -86.11,40.14 -186.75,60.22 -301.97,60.22zm0 -303.72c55.86,0 105.9,-9.29 150.12,-27.92 44.2,-18.63 82.04,-44.8 113.45,-78.54 31.41,-33.76 55.26,-73 71.56,-117.8 16.3,-44.8 24.43,-93.4 24.43,-145.77 0,-55.86 -8.41,-106.46 -25.29,-151.85 -16.88,-45.38 -41.03,-84.36 -72.44,-116.94 -31.41,-32.58 -69.23,-57.59 -113.45,-75.05 -44.22,-17.46 -93.68,-26.2 -148.38,-26.2 -55.86,0 -105.88,8.73 -150.1,26.2 -44.22,17.46 -82.04,42.47 -113.45,75.05 -31.41,32.58 -55.28,71.56 -71.56,116.94 -16.3,45.38 -24.45,95.99 -24.45,151.85 0,52.37 8.15,100.97 24.45,145.77 16.28,44.8 40.14,84.04 71.56,117.8 31.41,33.74 69.23,59.92 113.45,78.54 44.22,18.63 94.24,27.92 150.1,27.92zm883.21 268.81l0 -1274.18 324.65 0 0 1274.18 -324.65 0zm289.74 0l0 -282.76 516.64 0 0 282.76 -516.64 0zm1131.04 34.91c-118.69,0 -218.47,-18.61 -299.34,-55.86 -80.87,-37.23 -141.95,-88.14 -183.28,-152.73 -41.31,-64.57 -61.94,-138.76 -61.94,-222.54l314.17 0c0,30.27 8.43,57.89 25.31,82.92 16.86,25.01 42.17,44.5 75.93,58.47 33.72,13.97 76.78,20.96 129.14,20.96 45.38,0 84.06,-5.84 116.08,-17.46 32,-11.64 56.42,-27.94 73.3,-48.88 16.88,-20.93 25.31,-45.97 25.31,-75.05 0,-37.23 -15.72,-66.04 -47.13,-86.39 -31.41,-20.37 -84.36,-33.46 -158.83,-39.28l-82.04 -6.99c-131.49,-11.62 -236.21,-52.95 -314.17,-123.93 -77.98,-70.98 -116.94,-165.24 -116.94,-282.76 0,-83.78 19.49,-155.34 58.47,-214.69 38.96,-59.33 93.96,-104.72 164.93,-136.13 71,-31.43 154.76,-47.13 251.35,-47.13 104.72,0 193.44,17.46 266.18,52.37 72.72,34.91 128.28,84.06 166.68,147.49 38.42,63.41 57.61,136.99 57.61,220.77l-314.19 0c0,-27.92 -6.96,-53.51 -20.93,-76.78 -13.95,-23.28 -34.04,-41.61 -60.22,-54.98 -26.2,-13.39 -57.89,-20.09 -95.12,-20.09 -34.91,0 -64.29,5.52 -88.16,16.6 -23.85,11.04 -41.87,26.45 -54.09,46.25 -12.22,19.79 -18.33,41.89 -18.33,66.32 0,32.58 11.04,60.52 33.16,83.78 22.1,23.26 60.52,37.23 115.2,41.89l82.04 6.99c95.42,8.15 179.79,28.78 253.09,61.96 73.3,33.16 130.91,78.24 172.8,135.27 41.87,57.03 62.83,126.84 62.83,209.46 0,82.62 -21.24,154.76 -63.71,216.42 -42.47,61.68 -102.97,109.4 -181.51,143.14 -78.54,33.74 -173.11,50.62 -283.64,50.62zm1544.71 -34.91l-413.67 -595.19 -172.78 0 514.9 -678.99 373.53 0 -460.8 607.41 0 -123.93 549.82 790.69 -390.99 0zm-848.28 0l0 -1274.18 324.67 0 0 1274.18 -324.67 0zm1223.55 0l408.43 -1274.18 520.14 0 422.4 1274.18 -335.13 0 -328.14 -1047.28 92.51 34.91 -230.41 0 94.26 -34.91 -319.41 1047.28 -324.65 0zm333.38 -294.98l97.75 -265.32 483.48 0 97.73 265.32 -678.97 0zm1516.79 294.98l0 -1274.18 324.65 0 0 1274.18 -324.65 0zm289.74 -493.96l0 -265.32 473.01 0 0 265.32 -473.01 0zm0 -514.92l0 -265.3 492.22 0 0 265.3 -492.22 0zm687.7 1008.88l0 -1274.18 324.65 0 0 1274.18 -324.65 0zm289.74 0l0 -282.76 516.66 0 0 282.76 -516.66 0zm1288.12 34.91c-116.36,0 -217.61,-20.07 -303.72,-60.22 -86.09,-40.14 -157.65,-93.1 -214.67,-158.83 -57.03,-65.76 -99.5,-137.01 -127.42,-213.81 -27.94,-76.8 -41.89,-151.29 -41.89,-223.43l0 -38.4c0,-80.29 14.53,-159.11 43.64,-236.51 29.08,-77.38 72.72,-147.49 130.89,-210.32 58.19,-62.85 130.05,-112.87 215.56,-150.12 85.53,-37.23 184.75,-55.84 297.61,-55.84 111.7,0 210.32,18.61 295.85,55.84 85.53,37.26 157.37,87.27 215.56,150.12 58.19,62.83 102.11,132.94 131.77,210.32 29.69,77.4 44.52,156.22 44.52,236.51l0 38.4c0,72.14 -14.25,146.63 -42.78,223.43 -28.5,76.8 -71.28,148.05 -128.28,213.81 -57,65.74 -128.58,118.69 -214.67,158.83 -86.13,40.14 -186.77,60.22 -301.97,60.22zm0 -303.72c55.84,0 105.88,-9.29 150.1,-27.92 44.22,-18.63 82.04,-44.8 113.45,-78.54 31.43,-33.76 55.28,-73 71.58,-117.8 16.28,-44.8 24.43,-93.4 24.43,-145.77 0,-55.86 -8.43,-106.46 -25.31,-151.85 -16.88,-45.38 -41.01,-84.36 -72.42,-116.94 -31.41,-32.58 -69.25,-57.59 -113.47,-75.05 -44.22,-17.46 -93.68,-26.2 -148.35,-26.2 -55.86,0 -105.9,8.73 -150.12,26.2 -44.22,17.46 -82.01,42.47 -113.45,75.05 -31.41,32.58 -55.28,71.56 -71.56,116.94 -16.3,45.38 -24.45,95.99 -24.45,151.85 0,52.37 8.15,100.97 24.45,145.77 16.28,44.8 40.14,84.04 71.56,117.8 31.43,33.74 69.23,59.92 113.45,78.54 44.22,18.63 94.26,27.92 150.12,27.92zm883.18 268.81l0 -1284.65 324.67 0 0 1284.65 -324.67 0zm767.99 0l-357.81 -541.09 352.59 0 378.74 541.09 -373.53 0zm-525.37 -390.99l0 -249.58 305.46 0c38.4,0 71.56,-7.57 99.48,-22.7 27.92,-15.14 49.74,-36.65 65.46,-64.57 15.72,-27.92 23.57,-60.52 23.57,-97.75 0,-38.4 -7.85,-71.56 -23.57,-99.48 -15.72,-27.92 -37.54,-49.46 -65.46,-64.59 -27.92,-15.14 -61.08,-22.7 -99.48,-22.7l-305.46 0 0 -272.28 286.25 0c110.54,0 205.98,16.58 286.27,49.74 80.29,33.18 141.93,82.06 185.01,146.63 43.06,64.59 64.57,144.58 64.57,240.01l0 27.92c0,95.42 -21.82,174.83 -65.46,238.26 -43.64,63.41 -105.3,111.1 -185.03,143.12 -79.71,32 -174.83,47.99 -285.37,47.99l-286.25 0zm933.81 390.99l408.43 -1274.18 520.14 0 422.4 1274.18 -335.13 0 -328.14 -1047.28 92.51 34.91 -230.41 0 94.26 -34.91 -319.41 1047.28 -324.65 0zm333.38 -294.98l97.75 -265.32 483.48 0 97.73 265.32 -678.97 0z"/>
   <path class="fil0" d="M3855.3 4251.14l0 -460.52 169.7 0 173.49 376.61 21.45 0 -12.61 11.36 0 -387.97 97.17 0 0 460.52 -170.97 0 -173.49 -376.63 -21.45 0 12.61 -11.36 0 387.99 -95.9 0zm509.12 0l152.04 -460.52 167.18 0 157.71 460.52 -107.24 0 -127.44 -389.24 32.81 13.24 -81.39 0 34.06 -13.24 -124.27 389.24 -103.47 0zm115.45 -114.18l31.54 -85.79 180.41 0 32.19 85.79 -244.15 0zm471.88 114.18l0 -382.93 103.47 0 0 382.93 -103.47 0zm-129.32 -370.31l0 -90.21 362.12 0 0.63 90.21 -362.75 0zm619.51 382.3c-43.31,0 -80.01,-8.09 -110.06,-24.28 -30.1,-16.19 -52.91,-39.22 -68.47,-69.1 -15.54,-29.84 -23.33,-65.18 -23.33,-105.97l0 -273.17 103.47 0 0 276.94c0,20.2 3.88,37.75 11.66,52.69 7.78,14.92 18.93,26.39 33.44,34.39 14.51,7.98 32.28,11.99 53.3,11.99 21.45,0 39.43,-4.01 53.94,-11.99 14.51,-8 25.55,-19.36 33.14,-34.09 7.57,-14.7 11.34,-32.38 11.34,-52.99l0 -276.94 103.47 0 0 273.17c0,40.79 -7.78,76.13 -23.35,105.97 -15.54,29.88 -38.27,52.91 -68.13,69.1 -29.86,16.19 -66.66,24.28 -110.41,24.28zm296.51 -11.99l0 -464.32 103.47 0 0 464.32 -103.47 0zm279.48 0l-135.01 -198.07 113.56 0 141.33 198.07 -119.87 0zm-203.76 -147.62l0 -81.39 113.56 0c15.14,0 28.29,-3.04 39.43,-9.14 11.15,-6.1 19.75,-14.73 25.85,-25.85 6.1,-11.15 9.16,-24.08 9.16,-38.81 0,-14.73 -3.06,-27.66 -9.16,-38.79 -6.1,-11.15 -14.7,-19.77 -25.85,-25.87 -11.15,-6.1 -24.3,-9.16 -39.43,-9.16l-113.56 0 0 -87.68 105.34 0c38.29,0 71.51,5.78 99.67,17.36 28.2,11.56 49.85,28.7 65,51.42 15.14,22.7 22.7,51.31 22.7,85.79l0 10.09c0,34.09 -7.68,62.35 -23.03,84.86 -15.35,22.51 -37.02,39.33 -64.98,50.47 -27.98,11.15 -61.08,16.71 -99.37,16.71l-105.34 0zm384.82 147.62l0 -460.52 100.32 0 0.6 460.52 -100.92 0zm87.68 0l0.65 -85.79 201.24 0 0 85.79 -201.89 0zm0 -191.15l0.65 -85.79 186.08 0 0.65 85.79 -187.38 0zm0 -183.58l0.65 -85.79 196.82 0 0 85.79 -197.47 0zm596.98 374.73l0 -460.52 103.47 0 0 460.52 -103.47 0zm208.18 0l0 -460.52 169.72 0 173.49 376.61 21.43 0 -12.61 11.36 0 -387.97 97.17 0 0 460.52 -170.97 0 -173.49 -376.63 -21.45 0 12.61 -11.36 0 387.99 -95.9 0zm644.13 0l0 -382.93 103.47 0 0 382.93 -103.47 0zm-129.32 -370.31l0 -90.21 362.12 0 0.63 90.21 -362.75 0zm427.71 370.31l0 -460.52 100.32 0 0.63 460.52 -100.94 0zm87.71 0l0.63 -85.79 201.24 0 0 85.79 -201.87 0zm0 -191.15l0.63 -85.79 186.11 0 0.63 85.79 -187.36 0zm0 -183.58l0.63 -85.79 196.82 0 0 85.79 -197.45 0zm500.9 386.72c-41.22,0 -77.18,-6.83 -107.86,-20.5 -30.72,-13.67 -56.06,-32.06 -76.04,-55.19 -19.96,-23.13 -34.8,-48.79 -44.48,-76.97 -9.66,-28.18 -14.49,-56.36 -14.49,-84.54l0 -13.88c0,-29.02 4.83,-57.41 14.49,-85.16 9.68,-27.77 24.3,-52.99 43.85,-75.7 19.55,-22.7 43.96,-40.81 73.17,-54.27 29.24,-13.45 62.98,-20.18 101.27,-20.18 41.63,0 78.44,7.68 110.39,23.03 31.97,15.35 57.63,36.59 76.97,63.71 19.36,27.14 30.51,58.58 33.44,94.33l-103.44 0c-2.54,-16.82 -9.16,-31.54 -19.88,-44.15 -10.74,-12.63 -24.41,-22.51 -41.03,-29.65 -16.6,-7.16 -35.42,-10.74 -56.44,-10.74 -20.18,0 -38.16,3.58 -53.94,10.74 -15.76,7.14 -29.24,17.23 -40.38,30.27 -11.15,13.04 -19.55,28.5 -25.23,46.35 -5.67,17.89 -8.52,37.54 -8.52,59.01 0,22.29 3.04,42.56 9.14,60.86 6.1,18.3 15.03,34.06 26.82,47.3 11.77,13.26 26.39,23.46 43.83,30.62 17.46,7.16 36.91,10.72 58.36,10.72 28.59,0 53.4,-5.89 74.45,-17.66 21.02,-11.77 36.16,-27.34 45.41,-46.68l-12.59 70.65 0 -109.78 95.25 0 0 98.42c-19.77,31.97 -47,56.47 -81.69,73.5 -34.71,17.03 -74.99,25.55 -120.82,25.55zm-13.26 -177.27l0 -74.45 253.63 0 0 74.45 -253.63 0zm320.49 165.28l0 -464.32 103.47 0 0 464.32 -103.47 0zm279.48 0l-135.01 -198.07 113.56 0 141.3 198.07 -119.85 0zm-203.79 -147.62l0 -81.39 113.56 0c15.14,0 28.29,-3.04 39.43,-9.14 11.15,-6.1 19.77,-14.73 25.87,-25.85 6.1,-11.15 9.14,-24.08 9.14,-38.81 0,-14.73 -3.04,-27.66 -9.14,-38.79 -6.1,-11.15 -14.73,-19.77 -25.87,-25.87 -11.15,-6.1 -24.3,-9.16 -39.43,-9.16l-113.56 0 0 -87.68 105.36 0c38.27,0 71.49,5.78 99.67,17.36 28.18,11.56 49.85,28.7 64.98,51.42 15.14,22.7 22.72,51.31 22.72,85.79l0 10.09c0,34.09 -7.7,62.35 -23.05,84.86 -15.33,22.51 -37,39.33 -64.98,50.47 -27.96,11.15 -61.08,16.71 -99.35,16.71l-105.36 0zm341.29 147.62l152.04 -460.52 167.2 0 157.71 460.52 -107.26 0 -127.42 -389.24 32.79 13.24 -81.37 0 34.06 -13.24 -124.29 389.24 -103.47 0zm115.45 -114.18l31.54 -85.79 180.44 0 32.17 85.79 -244.15 0zm471.88 114.18l0 -382.93 103.47 0 0 382.93 -103.47 0zm-129.32 -370.31l0 -90.21 362.12 0 0.63 90.21 -362.75 0zm635.93 382.3c-41.63,0 -77.92,-7.24 -108.83,-21.75 -30.92,-14.51 -56.47,-33.66 -76.65,-57.41 -20.2,-23.76 -35.23,-49.52 -45.1,-77.27 -9.9,-27.77 -14.83,-54.48 -14.83,-80.14l0 -13.88c0,-28.59 5.15,-56.88 15.46,-84.84 10.31,-27.96 25.76,-53.32 46.38,-76.02 20.59,-22.72 46.25,-40.9 76.95,-54.57 30.72,-13.67 66.25,-20.5 106.64,-20.5 40.36,0 75.91,6.83 106.59,20.5 30.72,13.67 56.36,31.84 76.99,54.57 20.61,22.7 36.16,48.06 46.68,76.02 10.5,27.96 15.76,56.25 15.76,84.84l0 13.88c0,25.66 -5.05,52.37 -15.14,80.14 -10.09,27.75 -25.23,53.51 -45.43,77.27 -20.18,23.76 -45.73,42.9 -76.65,57.41 -30.92,14.51 -67.18,21.75 -108.81,21.75zm0 -96.5c21.86,0 41.52,-3.79 58.97,-11.36 17.46,-7.59 32.38,-18.09 44.8,-31.56 12.4,-13.43 21.78,-29 28.07,-46.68 6.32,-17.66 9.46,-36.59 9.46,-56.79 0,-21.43 -3.26,-41.09 -9.77,-58.97 -6.53,-17.87 -16,-33.44 -28.39,-46.7 -12.42,-13.24 -27.23,-23.44 -44.48,-30.57 -17.25,-7.16 -36.8,-10.74 -58.66,-10.74 -21.88,0 -41.44,3.58 -58.69,10.74 -17.23,7.14 -32.06,17.33 -44.48,30.57 -12.4,13.26 -21.75,28.83 -28.07,46.7 -6.3,17.87 -9.46,37.54 -9.46,58.97 0,20.2 3.17,39.13 9.46,56.79 6.32,17.68 15.67,33.25 28.07,46.68 12.42,13.48 27.25,23.97 44.48,31.56 17.25,7.57 36.8,11.36 58.69,11.36zm324.26 84.52l0 -464.32 103.47 0 0 464.32 -103.47 0zm279.48 0l-135.01 -198.07 113.56 0 141.3 198.07 -119.85 0zm-203.79 -147.62l0 -81.39 113.58 0c15.11,0 28.27,-3.04 39.41,-9.14 11.15,-6.1 19.77,-14.73 25.87,-25.85 6.1,-11.15 9.14,-24.08 9.14,-38.81 0,-14.73 -3.04,-27.66 -9.14,-38.79 -6.1,-11.15 -14.73,-19.77 -25.87,-25.87 -11.15,-6.1 -24.3,-9.16 -39.41,-9.16l-113.58 0 0 -87.68 105.36 0c38.27,0 71.49,5.78 99.67,17.36 28.18,11.56 49.85,28.7 64.98,51.42 15.14,22.7 22.72,51.31 22.72,85.79l0 10.09c0,34.09 -7.68,62.35 -23.05,84.86 -15.33,22.51 -37,39.33 -64.96,50.47 -27.98,11.15 -61.1,16.71 -99.37,16.71l-105.36 0z"/>
   <path class="fil1" d="M1861.32 3871.68l-383.6 0 0 -621.9 1096.63 -625.22 0 -437.41 -1096.63 625.22 0 -437.43 1096.63 -625.24 0 -1749.7 -1477.7 842.52 0 877.71 -1096.65 -625.22 0 1749.68 1096.65 625.24 0 401.75 -715.56 0 0 381.09 2574.35 0 0 -1223.53 -353.63 -201.63 -383.62 218.7 356.15 203.07 0 622.29 -331.94 0 0 -370.92 -381.09 0 0 370.92zm-383.6 -1934.17l0 -874.84 715.53 -407.98 0 874.84 -715.53 407.98zm-381.07 220.15l0 874.84 -715.56 -407.96 0 -874.86 715.56 407.98z"/>
  </g>
 </g>
</svg>
