<?xml version="1.0" encoding="UTF-8"?>
<!DOCTYPE svg PUBLIC "-//W3C//DTD SVG 1.1//EN" "http://www.w3.org/Graphics/SVG/1.1/DTD/svg11.dtd">
<!-- Creator: CorelDRAW -->
<svg xmlns="http://www.w3.org/2000/svg" xml:space="preserve" width="18.6589mm" height="25.2973mm" version="1.1" style="shape-rendering:geometricPrecision; text-rendering:geometricPrecision; image-rendering:optimizeQuality; fill-rule:evenodd; clip-rule:evenodd"
viewBox="0 0 436.1 591.25"
 xmlns:xlink="http://www.w3.org/1999/xlink"
 xmlns:xodm="http://www.corel.com/coreldraw/odm/2003">
 <defs>
  <style type="text/css">
   <![CDATA[
    .fil1 {fill:black}
    .fil0 {fill:black;fill-rule:nonzero}
   ]]>
  </style>
 </defs>
 <g id="Слой_x0020_1">
  <metadata id="CorelCorpID_0Corel-Layer"/>
  <g id="_1722807024720">
   <path class="fil0" d="M33.38 590.65l0 -23.27 8.58 0 8.77 19.03 1.08 0 -0.64 0.57 0 -19.6 4.91 0 0 23.27 -8.64 0 -8.76 -19.03 -1.08 0 0.64 -0.57 0 19.61 -4.85 0zm25.73 0l7.68 -23.27 8.45 0 7.97 23.27 -5.42 0 -6.44 -19.67 1.66 0.67 -4.11 0 1.72 -0.67 -6.28 19.67 -5.23 0zm5.83 -5.77l1.59 -4.34 9.12 0 1.62 4.34 -12.34 0zm23.84 5.77l0 -19.35 5.23 0 0 19.35 -5.23 0zm-6.53 -18.71l0 -4.56 18.3 0 0.03 4.56 -18.33 0zm31.3 19.32c-2.19,0 -4.04,-0.41 -5.56,-1.23 -1.52,-0.82 -2.67,-1.98 -3.46,-3.49 -0.79,-1.51 -1.18,-3.29 -1.18,-5.35l0 -13.8 5.23 0 0 13.99c0,1.02 0.2,1.91 0.59,2.66 0.39,0.75 0.96,1.33 1.69,1.74 0.73,0.4 1.63,0.61 2.69,0.61 1.08,0 1.99,-0.2 2.73,-0.61 0.73,-0.4 1.29,-0.98 1.67,-1.72 0.38,-0.74 0.57,-1.64 0.57,-2.68l0 -13.99 5.23 0 0 13.8c0,2.06 -0.39,3.85 -1.18,5.35 -0.79,1.51 -1.93,2.67 -3.44,3.49 -1.51,0.82 -3.37,1.23 -5.58,1.23zm14.98 -0.61l0 -23.46 5.23 0 0 23.46 -5.23 0zm14.12 0l-6.82 -10.01 5.74 0 7.14 10.01 -6.06 0zm-10.3 -7.46l0 -4.11 5.74 0c0.76,0 1.43,-0.15 1.99,-0.46 0.56,-0.31 1,-0.74 1.31,-1.31 0.31,-0.56 0.46,-1.22 0.46,-1.96 0,-0.74 -0.15,-1.4 -0.46,-1.96 -0.31,-0.56 -0.74,-1 -1.31,-1.31 -0.56,-0.31 -1.23,-0.46 -1.99,-0.46l-5.74 0 0 -4.43 5.32 0c1.93,0 3.61,0.29 5.03,0.88 1.43,0.58 2.52,1.45 3.28,2.6 0.77,1.15 1.15,2.59 1.15,4.34l0 0.51c0,1.72 -0.39,3.15 -1.16,4.29 -0.77,1.14 -1.87,1.99 -3.28,2.55 -1.41,0.56 -3.09,0.84 -5.02,0.84l-5.32 0zm19.45 7.46l0 -23.27 5.07 0 0.03 23.27 -5.1 0zm4.43 0l0.03 -4.34 10.17 0 0 4.34 -10.2 0zm0 -9.66l0.03 -4.34 9.4 0 0.03 4.34 -9.47 0zm0 -9.28l0.03 -4.34 9.94 0 0 4.34 -9.98 0zm30.16 18.94l0 -23.27 5.23 0 0 23.27 -5.23 0zm10.52 0l0 -23.27 8.58 0 8.77 19.03 1.08 0 -0.64 0.57 0 -19.6 4.91 0 0 23.27 -8.64 0 -8.76 -19.03 -1.08 0 0.64 -0.57 0 19.61 -4.85 0zm32.55 0l0 -19.35 5.23 0 0 19.35 -5.23 0zm-6.53 -18.71l0 -4.56 18.3 0 0.03 4.56 -18.33 0zm21.61 18.71l0 -23.27 5.07 0 0.03 23.27 -5.1 0zm4.43 0l0.03 -4.34 10.17 0 0 4.34 -10.2 0zm0 -9.66l0.03 -4.34 9.4 0 0.03 4.34 -9.47 0zm0 -9.28l0.03 -4.34 9.94 0 0 4.34 -9.98 0zm25.31 19.54c-2.08,0 -3.9,-0.35 -5.45,-1.04 -1.55,-0.69 -2.83,-1.62 -3.84,-2.79 -1.01,-1.17 -1.76,-2.47 -2.25,-3.89 -0.49,-1.42 -0.73,-2.85 -0.73,-4.27l0 -0.7c0,-1.47 0.25,-2.9 0.73,-4.3 0.49,-1.4 1.23,-2.68 2.22,-3.82 0.99,-1.15 2.22,-2.06 3.7,-2.74 1.48,-0.68 3.18,-1.02 5.12,-1.02 2.1,0 3.96,0.39 5.58,1.16 1.62,0.78 2.91,1.85 3.89,3.22 0.98,1.37 1.54,2.96 1.69,4.77l-5.23 0c-0.13,-0.85 -0.46,-1.59 -1.01,-2.23 -0.54,-0.64 -1.23,-1.14 -2.07,-1.5 -0.84,-0.36 -1.79,-0.54 -2.85,-0.54 -1.02,0 -1.93,0.18 -2.73,0.54 -0.8,0.36 -1.48,0.87 -2.04,1.53 -0.56,0.66 -0.99,1.44 -1.28,2.34 -0.29,0.9 -0.43,1.9 -0.43,2.98 0,1.13 0.15,2.15 0.46,3.08 0.31,0.93 0.76,1.72 1.36,2.39 0.59,0.67 1.33,1.18 2.22,1.55 0.88,0.36 1.87,0.54 2.95,0.54 1.44,0 2.7,-0.3 3.76,-0.89 1.06,-0.6 1.83,-1.38 2.3,-2.36l-0.64 3.57 0 -5.55 4.81 0 0 4.97c-1,1.62 -2.37,2.85 -4.13,3.71 -1.75,0.86 -3.79,1.29 -6.1,1.29zm-0.67 -8.96l0 -3.76 12.81 0 0 3.76 -12.81 0zm16.19 8.35l0 -23.46 5.23 0 0 23.46 -5.23 0zm14.12 0l-6.82 -10.01 5.74 0 7.14 10.01 -6.06 0zm-10.3 -7.46l0 -4.11 5.74 0c0.76,0 1.43,-0.15 1.99,-0.46 0.56,-0.31 1,-0.74 1.31,-1.31 0.31,-0.56 0.46,-1.22 0.46,-1.96 0,-0.74 -0.15,-1.4 -0.46,-1.96 -0.31,-0.56 -0.74,-1 -1.31,-1.31 -0.56,-0.31 -1.23,-0.46 -1.99,-0.46l-5.74 0 0 -4.43 5.32 0c1.93,0 3.61,0.29 5.04,0.88 1.42,0.58 2.52,1.45 3.28,2.6 0.76,1.15 1.15,2.59 1.15,4.34l0 0.51c0,1.72 -0.39,3.15 -1.16,4.29 -0.78,1.14 -1.87,1.99 -3.28,2.55 -1.41,0.56 -3.09,0.84 -5.02,0.84l-5.32 0zm17.25 7.46l7.68 -23.27 8.45 0 7.97 23.27 -5.42 0 -6.44 -19.67 1.66 0.67 -4.11 0 1.72 -0.67 -6.28 19.67 -5.23 0zm5.83 -5.77l1.59 -4.34 9.12 0 1.63 4.34 -12.34 0zm23.84 5.77l0 -19.35 5.23 0 0 19.35 -5.23 0zm-6.53 -18.71l0 -4.56 18.3 0 0.03 4.56 -18.33 0zm32.13 19.32c-2.1,0 -3.94,-0.37 -5.5,-1.1 -1.56,-0.73 -2.85,-1.7 -3.87,-2.9 -1.02,-1.2 -1.78,-2.5 -2.28,-3.91 -0.5,-1.4 -0.75,-2.75 -0.75,-4.05l0 -0.7c0,-1.44 0.26,-2.87 0.78,-4.29 0.52,-1.41 1.3,-2.69 2.34,-3.84 1.04,-1.15 2.34,-2.07 3.89,-2.76 1.55,-0.69 3.35,-1.04 5.39,-1.04 2.04,0 3.84,0.35 5.39,1.04 1.55,0.69 2.85,1.61 3.89,2.76 1.04,1.15 1.83,2.43 2.36,3.84 0.53,1.41 0.8,2.84 0.8,4.29l0 0.7c0,1.3 -0.25,2.65 -0.76,4.05 -0.51,1.4 -1.28,2.7 -2.3,3.91 -1.02,1.2 -2.31,2.17 -3.87,2.9 -1.56,0.73 -3.4,1.1 -5.5,1.1zm0 -4.88c1.11,0 2.1,-0.19 2.98,-0.57 0.88,-0.38 1.64,-0.92 2.26,-1.6 0.63,-0.68 1.1,-1.47 1.42,-2.36 0.32,-0.89 0.48,-1.85 0.48,-2.87 0,-1.08 -0.17,-2.08 -0.49,-2.98 -0.33,-0.9 -0.81,-1.69 -1.44,-2.36 -0.63,-0.67 -1.38,-1.18 -2.25,-1.54 -0.87,-0.36 -1.86,-0.54 -2.96,-0.54 -1.11,0 -2.09,0.18 -2.97,0.54 -0.87,0.36 -1.62,0.88 -2.25,1.54 -0.63,0.67 -1.1,1.46 -1.42,2.36 -0.32,0.9 -0.48,1.9 -0.48,2.98 0,1.02 0.16,1.97 0.48,2.87 0.32,0.89 0.79,1.68 1.42,2.36 0.63,0.68 1.38,1.21 2.25,1.6 0.87,0.38 1.86,0.57 2.97,0.57zm16.38 4.27l0 -23.46 5.23 0 0 23.46 -5.23 0zm14.12 0l-6.82 -10.01 5.74 0 7.14 10.01 -6.06 0zm-10.3 -7.46l0 -4.11 5.74 0c0.76,0 1.43,-0.15 1.99,-0.46 0.56,-0.31 1,-0.74 1.31,-1.31 0.31,-0.56 0.46,-1.22 0.46,-1.96 0,-0.74 -0.15,-1.4 -0.46,-1.96 -0.31,-0.56 -0.74,-1 -1.31,-1.31 -0.56,-0.31 -1.23,-0.46 -1.99,-0.46l-5.74 0 0 -4.43 5.32 0c1.93,0 3.61,0.29 5.04,0.88 1.42,0.58 2.52,1.45 3.28,2.6 0.76,1.15 1.15,2.59 1.15,4.34l0 0.51c0,1.72 -0.39,3.15 -1.16,4.29 -0.78,1.14 -1.87,1.99 -3.28,2.55 -1.41,0.56 -3.09,0.84 -5.02,0.84l-5.32 0z"/>
   <path class="fil1" d="M245.51 277.14l-27.46 0 0 -44.52 78.5 -44.75 0 -31.31 -78.5 44.75 0 -31.31 78.5 -44.76 0 -125.25 -105.78 60.31 0 62.83 -78.5 -44.76 0 125.24 78.5 44.76 0 28.76 -51.22 0 0 27.28 184.28 0 0 -87.58 -25.31 -14.43 -27.46 15.66 25.49 14.54 0 44.55 -23.76 0 0 -26.55 -27.28 0 0 26.55zm-27.46 -138.45l0 -62.62 51.22 -29.2 0 62.62 -51.22 29.2zm-27.28 15.76l0 62.62 -51.22 -29.2 0 -62.63 51.22 29.2z"/>
   <path class="fil0" d="M17.12 412.45l0 -16.51 12.38 0c2.34,0 4.37,-0.46 6.09,-1.39 1.72,-0.93 3.06,-2.25 4.02,-3.97 0.96,-1.72 1.44,-3.75 1.44,-6.09 0,-2.41 -0.48,-4.47 -1.44,-6.19 -0.96,-1.72 -2.3,-3.03 -4.02,-3.92 -1.72,-0.89 -3.75,-1.34 -6.09,-1.34l-12.38 0 0 -16.5 11.86 0c6.46,0 12.05,1.08 16.76,3.25 4.71,2.17 8.34,5.28 10.88,9.34 2.55,4.06 3.82,8.9 3.82,14.54l0 1.65c0,5.57 -1.27,10.38 -3.82,14.44 -2.55,4.06 -6.17,7.18 -10.88,9.39 -4.71,2.2 -10.3,3.3 -16.76,3.3l-11.86 0zm-17.12 20.01l0 -75.92 19.19 0 0 75.92 -19.19 0zm106.65 2.06c-6.88,0 -12.86,-1.19 -17.95,-3.56 -5.09,-2.37 -9.32,-5.5 -12.69,-9.39 -3.37,-3.88 -5.88,-8.1 -7.53,-12.64 -1.65,-4.54 -2.48,-8.94 -2.48,-13.2l0 -2.27c0,-4.74 0.86,-9.4 2.58,-13.97 1.72,-4.57 4.3,-8.72 7.74,-12.43 3.44,-3.71 7.68,-6.67 12.74,-8.87 5.05,-2.2 10.92,-3.3 17.59,-3.3 6.6,0 12.43,1.1 17.48,3.3 5.05,2.2 9.3,5.16 12.74,8.87 3.44,3.71 6.03,7.86 7.79,12.43 1.75,4.57 2.63,9.23 2.63,13.97l0 2.27c0,4.27 -0.84,8.66 -2.53,13.2 -1.69,4.54 -4.21,8.75 -7.58,12.64 -3.37,3.89 -7.6,7.01 -12.69,9.39 -5.09,2.37 -11.04,3.56 -17.84,3.56zm0 -17.95c3.3,0 6.26,-0.55 8.87,-1.65 2.61,-1.1 4.85,-2.65 6.7,-4.64 1.86,-1.99 3.27,-4.31 4.23,-6.96 0.96,-2.65 1.44,-5.52 1.44,-8.61 0,-3.3 -0.5,-6.29 -1.49,-8.97 -1,-2.68 -2.42,-4.98 -4.28,-6.91 -1.86,-1.92 -4.09,-3.4 -6.7,-4.43 -2.61,-1.03 -5.53,-1.55 -8.77,-1.55 -3.3,0 -6.26,0.52 -8.87,1.55 -2.61,1.03 -4.85,2.51 -6.7,4.43 -1.86,1.93 -3.27,4.23 -4.23,6.91 -0.96,2.68 -1.44,5.67 -1.44,8.97 0,3.09 0.48,5.96 1.44,8.61 0.96,2.65 2.37,4.97 4.23,6.96 1.86,1.99 4.09,3.54 6.7,4.64 2.61,1.1 5.57,1.65 8.87,1.65zm52.19 15.88l0 -75.3 19.19 0 0 75.3 -19.19 0zm17.12 0l0 -16.71 30.53 0 0 16.71 -30.53 0zm66.84 2.06c-7.01,0 -12.91,-1.1 -17.69,-3.3 -4.78,-2.2 -8.39,-5.21 -10.83,-9.02 -2.44,-3.82 -3.66,-8.2 -3.66,-13.15l18.57 0c0,1.79 0.5,3.42 1.5,4.9 1,1.48 2.49,2.63 4.49,3.45 1.99,0.83 4.54,1.24 7.63,1.24 2.68,0 4.97,-0.34 6.86,-1.03 1.89,-0.69 3.34,-1.65 4.33,-2.89 1,-1.24 1.5,-2.72 1.5,-4.43 0,-2.2 -0.93,-3.9 -2.79,-5.11 -1.86,-1.2 -4.99,-1.98 -9.39,-2.32l-4.85 -0.41c-7.77,-0.69 -13.96,-3.13 -18.57,-7.32 -4.61,-4.19 -6.91,-9.76 -6.91,-16.71 0,-4.95 1.15,-9.18 3.46,-12.69 2.3,-3.51 5.55,-6.19 9.75,-8.04 4.2,-1.86 9.15,-2.79 14.85,-2.79 6.19,0 11.43,1.03 15.73,3.09 4.3,2.06 7.58,4.97 9.85,8.72 2.27,3.75 3.4,8.1 3.4,13.05l-18.56 0c0,-1.65 -0.41,-3.16 -1.24,-4.54 -0.83,-1.37 -2.01,-2.46 -3.56,-3.25 -1.55,-0.79 -3.42,-1.18 -5.62,-1.18 -2.06,0 -3.8,0.32 -5.21,0.98 -1.41,0.65 -2.48,1.56 -3.2,2.73 -0.72,1.17 -1.08,2.48 -1.08,3.92 0,1.93 0.65,3.58 1.96,4.95 1.31,1.38 3.58,2.2 6.81,2.48l4.85 0.41c5.64,0.48 10.63,1.7 14.96,3.66 4.33,1.96 7.74,4.63 10.21,7.99 2.48,3.37 3.71,7.5 3.71,12.38 0,4.88 -1.26,9.15 -3.77,12.79 -2.51,3.65 -6.08,6.46 -10.73,8.46 -4.64,1.99 -10.23,2.99 -16.76,2.99zm91.28 -2.06l-24.45 -35.17 -10.21 0 30.43 -40.13 22.07 0 -27.23 35.9 0 -7.32 32.49 46.73 -23.11 0zm-50.13 0l0 -75.3 19.19 0 0 75.3 -19.19 0zm72.3 0l24.14 -75.3 30.74 0 24.96 75.3 -19.8 0 -19.39 -61.89 5.47 2.06 -13.61 0 5.57 -2.06 -18.88 61.89 -19.18 0zm19.7 -17.43l5.78 -15.68 28.57 0 5.78 15.68 -40.12 0zm-334.19 120.68l0 -75.3 19.19 0 0 75.3 -19.19 0zm17.12 -29.19l0 -15.68 27.95 0 0 15.68 -27.95 0zm0 -30.43l0 -15.68 29.09 0 0 15.68 -29.09 0zm40.64 59.62l0 -75.3 19.19 0 0 75.3 -19.19 0zm17.12 0l0 -16.71 30.53 0 0 16.71 -30.53 0zm76.12 2.06c-6.88,0 -12.86,-1.19 -17.95,-3.56 -5.09,-2.37 -9.32,-5.5 -12.69,-9.39 -3.37,-3.88 -5.88,-8.1 -7.53,-12.64 -1.65,-4.54 -2.48,-8.94 -2.48,-13.2l0 -2.27c0,-4.74 0.86,-9.4 2.58,-13.97 1.72,-4.57 4.3,-8.72 7.74,-12.43 3.44,-3.71 7.68,-6.67 12.74,-8.87 5.05,-2.2 10.91,-3.3 17.59,-3.3 6.6,0 12.43,1.1 17.48,3.3 5.05,2.2 9.3,5.16 12.74,8.87 3.44,3.71 6.03,7.86 7.79,12.43 1.76,4.57 2.63,9.23 2.63,13.97l0 2.27c0,4.26 -0.84,8.66 -2.53,13.2 -1.69,4.54 -4.21,8.75 -7.58,12.64 -3.37,3.88 -7.6,7.01 -12.69,9.39 -5.09,2.37 -11.04,3.56 -17.84,3.56zm0 -17.95c3.3,0 6.26,-0.55 8.87,-1.65 2.61,-1.1 4.85,-2.65 6.71,-4.64 1.86,-1.99 3.27,-4.31 4.23,-6.96 0.96,-2.65 1.44,-5.52 1.44,-8.61 0,-3.3 -0.5,-6.29 -1.5,-8.97 -1,-2.68 -2.42,-4.98 -4.28,-6.91 -1.86,-1.92 -4.09,-3.4 -6.71,-4.43 -2.61,-1.03 -5.53,-1.55 -8.77,-1.55 -3.3,0 -6.26,0.51 -8.87,1.55 -2.61,1.03 -4.85,2.51 -6.71,4.43 -1.86,1.93 -3.27,4.23 -4.23,6.91 -0.96,2.68 -1.44,5.67 -1.44,8.97 0,3.09 0.48,5.96 1.44,8.61 0.96,2.65 2.37,4.97 4.23,6.96 1.86,1.99 4.09,3.54 6.71,4.64 2.61,1.1 5.57,1.65 8.87,1.65zm52.19 15.88l0 -75.92 19.18 0 0 75.92 -19.18 0zm45.38 0l-21.15 -31.98 20.84 0 22.38 31.98 -22.07 0zm-31.05 -23.1l0 -14.75 18.05 0c2.27,0 4.23,-0.45 5.88,-1.34 1.65,-0.9 2.94,-2.17 3.87,-3.82 0.93,-1.65 1.39,-3.58 1.39,-5.78 0,-2.27 -0.46,-4.23 -1.39,-5.88 -0.93,-1.65 -2.22,-2.92 -3.87,-3.82 -1.65,-0.89 -3.61,-1.34 -5.88,-1.34l-18.05 0 0 -16.09 16.92 0c6.53,0 12.17,0.98 16.91,2.94 4.74,1.96 8.39,4.85 10.93,8.66 2.55,3.82 3.82,8.54 3.82,14.18l0 1.65c0,5.64 -1.29,10.33 -3.87,14.08 -2.58,3.75 -6.22,6.57 -10.93,8.46 -4.71,1.89 -10.33,2.84 -16.86,2.84l-16.92 0zm55.18 23.1l24.14 -75.3 30.74 0 24.96 75.3 -19.8 0 -19.39 -61.89 5.47 2.06 -13.61 0 5.57 -2.06 -18.88 61.89 -19.18 0zm19.7 -17.43l5.78 -15.68 28.57 0 5.78 15.68 -40.12 0z"/>
  </g>
 </g>
</svg>
