<?xml version="1.0" encoding="UTF-8"?>
<!DOCTYPE svg PUBLIC "-//W3C//DTD SVG 1.1//EN" "http://www.w3.org/Graphics/SVG/1.1/DTD/svg11.dtd">
<!-- Creator: CorelDRAW -->
<svg xmlns="http://www.w3.org/2000/svg" xml:space="preserve" width="27.1073mm" height="33.4271mm" version="1.1" style="shape-rendering:geometricPrecision; text-rendering:geometricPrecision; image-rendering:optimizeQuality; fill-rule:evenodd; clip-rule:evenodd"
viewBox="0 0 633.58 781.3"
 xmlns:xlink="http://www.w3.org/1999/xlink"
 xmlns:xodm="http://www.corel.com/coreldraw/odm/2003">
 <defs>
  <style type="text/css">
   <![CDATA[
    .fil0 {fill:#A0AF14}
    .fil1 {fill:white;fill-rule:nonzero}
   ]]>
  </style>
 </defs>
 <g id="Слой_x0020_1">
  <metadata id="CorelCorpID_0Corel-Layer"/>
  <g id="_1722859834368">
   <path class="fil0" d="M356.69 402.64l-39.89 0 0 -64.68 114.04 -65.02 0 -45.49 -114.04 65.02 0 -45.49 114.04 -65.02 0 -181.96 -153.68 87.62 0 91.28 -114.05 -65.02 0 181.96 114.05 65.02 0 41.78 -74.42 0 0 39.63 267.73 0 0 -127.24 -36.78 -20.97 -39.9 22.74 37.04 21.12 0 64.72 -34.52 0 0 -38.57 -39.63 0 0 38.57zm-39.89 -201.15l0 -90.98 74.41 -42.43 0 90.98 -74.41 42.43zm-39.63 22.9l0 90.98 -74.42 -42.43 0 -90.98 74.42 42.43z"/>
   <path class="fil1" d="M24.88 599.22l0 -23.98 17.98 0c3.4,0 6.35,-0.67 8.84,-2.02 2.5,-1.35 4.45,-3.27 5.85,-5.77 1.4,-2.5 2.1,-5.45 2.1,-8.84 0,-3.5 -0.7,-6.49 -2.1,-8.99 -1.4,-2.5 -3.35,-4.4 -5.85,-5.69 -2.5,-1.3 -5.44,-1.95 -8.84,-1.95l-17.98 0 0 -23.98 17.23 0c9.39,0 17.51,1.57 24.35,4.72 6.84,3.15 12.11,7.67 15.81,13.56 3.7,5.89 5.54,12.94 5.54,21.13l0 2.4c0,8.09 -1.85,15.09 -5.54,20.98 -3.7,5.89 -8.97,10.44 -15.81,13.64 -6.84,3.2 -14.96,4.79 -24.35,4.79l-17.23 0zm-24.88 29.07l0 -110.29 27.87 0 0 110.29 -27.87 0zm154.95 3c-9.99,0 -18.68,-1.72 -26.07,-5.17 -7.39,-3.45 -13.54,-7.99 -18.43,-13.64 -4.89,-5.64 -8.54,-11.76 -10.94,-18.36 -2.4,-6.59 -3.6,-12.99 -3.6,-19.18l0 -3.3c0,-6.89 1.25,-13.66 3.74,-20.3 2.5,-6.64 6.25,-12.66 11.24,-18.06 4.99,-5.39 11.17,-9.69 18.51,-12.89 7.34,-3.2 15.86,-4.8 25.55,-4.8 9.59,0 18.06,1.6 25.4,4.8 7.34,3.2 13.51,7.49 18.51,12.89 4.99,5.39 8.76,11.41 11.31,18.06 2.55,6.64 3.82,13.41 3.82,20.3l0 3.3c0,6.2 -1.22,12.59 -3.67,19.18 -2.45,6.59 -6.12,12.71 -11.02,18.36 -4.89,5.64 -11.04,10.19 -18.43,13.64 -7.39,3.45 -16.03,5.17 -25.93,5.17zm0 -26.08c4.8,0 9.09,-0.8 12.89,-2.4 3.8,-1.6 7.04,-3.85 9.74,-6.75 2.7,-2.9 4.74,-6.27 6.14,-10.11 1.4,-3.85 2.1,-8.02 2.1,-12.51 0,-4.79 -0.72,-9.14 -2.17,-13.04 -1.45,-3.9 -3.52,-7.24 -6.22,-10.04 -2.69,-2.8 -5.94,-4.94 -9.74,-6.44 -3.8,-1.5 -8.04,-2.25 -12.74,-2.25 -4.79,0 -9.09,0.75 -12.89,2.25 -3.8,1.5 -7.04,3.65 -9.74,6.44 -2.69,2.8 -4.74,6.14 -6.14,10.04 -1.4,3.9 -2.1,8.24 -2.1,13.04 0,4.5 0.7,8.67 2.1,12.51 1.4,3.85 3.45,7.22 6.14,10.11 2.7,2.9 5.95,5.15 9.74,6.75 3.8,1.6 8.09,2.4 12.89,2.4zm75.83 23.08l0 -109.39 27.87 0 0 109.39 -27.87 0zm24.88 0l0 -24.28 44.36 0 0 24.28 -44.36 0zm97.11 3c-10.19,0 -18.76,-1.6 -25.7,-4.8 -6.94,-3.2 -12.19,-7.57 -15.73,-13.11 -3.55,-5.54 -5.32,-11.91 -5.32,-19.11l26.97 0c0,2.6 0.72,4.97 2.17,7.12 1.45,2.15 3.62,3.82 6.52,5.02 2.9,1.2 6.59,1.8 11.09,1.8 3.9,0 7.22,-0.5 9.97,-1.5 2.75,-1 4.85,-2.4 6.29,-4.2 1.45,-1.8 2.17,-3.95 2.17,-6.44 0,-3.2 -1.35,-5.67 -4.05,-7.42 -2.7,-1.75 -7.24,-2.87 -13.64,-3.37l-7.04 -0.6c-11.29,-1 -20.28,-4.55 -26.97,-10.64 -6.69,-6.09 -10.04,-14.19 -10.04,-24.28 0,-7.19 1.67,-13.34 5.02,-18.43 3.35,-5.09 8.07,-8.99 14.16,-11.69 6.09,-2.7 13.29,-4.05 21.58,-4.05 8.99,0 16.61,1.5 22.85,4.5 6.24,3 11.01,7.22 14.31,12.66 3.3,5.45 4.94,11.76 4.94,18.96l-26.97 0c0,-2.4 -0.6,-4.6 -1.8,-6.59 -1.2,-2 -2.92,-3.57 -5.17,-4.72 -2.25,-1.15 -4.97,-1.72 -8.17,-1.72 -3,0 -5.52,0.47 -7.57,1.42 -2.05,0.95 -3.6,2.27 -4.65,3.97 -1.05,1.7 -1.57,3.6 -1.57,5.69 0,2.8 0.95,5.2 2.85,7.19 1.9,2 5.2,3.2 9.89,3.59l7.04 0.6c8.19,0.7 15.44,2.47 21.73,5.32 6.29,2.85 11.24,6.72 14.83,11.61 3.6,4.89 5.4,10.89 5.4,17.98 0,7.09 -1.82,13.29 -5.47,18.58 -3.65,5.29 -8.84,9.39 -15.58,12.29 -6.74,2.9 -14.86,4.35 -24.35,4.35zm132.62 -3l-35.52 -51.1 -14.83 0 44.21 -58.29 32.07 0 -39.56 52.15 0 -10.64 47.2 67.88 -33.57 0zm-72.83 0l0 -109.39 27.87 0 0 109.39 -27.87 0zm105.05 0l35.06 -109.39 44.66 0 36.27 109.39 -28.77 0 -28.17 -89.91 7.94 3 -19.78 0 8.09 -3 -27.43 89.91 -27.87 0zm28.62 -25.32l8.39 -22.78 41.51 0 8.39 22.78 -58.29 0zm-485.53 175.33l0 -109.39 27.87 0 0 109.39 -27.87 0zm24.88 -42.41l0 -22.78 40.61 0 0 22.78 -40.61 0zm0 -44.21l0 -22.78 42.26 0 0 22.78 -42.26 0zm59.04 86.62l0 -109.39 27.87 0 0 109.39 -27.87 0zm24.88 0l0 -24.28 44.36 0 0 24.28 -44.36 0zm110.59 3c-9.99,0 -18.68,-1.72 -26.07,-5.17 -7.39,-3.45 -13.54,-7.99 -18.43,-13.64 -4.89,-5.64 -8.54,-11.76 -10.94,-18.36 -2.4,-6.59 -3.6,-12.99 -3.6,-19.18l0 -3.3c0,-6.89 1.25,-13.66 3.74,-20.3 2.5,-6.64 6.25,-12.66 11.24,-18.06 4.99,-5.39 11.17,-9.69 18.51,-12.89 7.34,-3.2 15.86,-4.8 25.55,-4.8 9.59,0 18.06,1.6 25.4,4.8 7.34,3.2 13.51,7.49 18.51,12.89 4.99,5.39 8.76,11.41 11.31,18.06 2.55,6.64 3.82,13.41 3.82,20.3l0 3.3c0,6.19 -1.22,12.59 -3.67,19.18 -2.45,6.59 -6.12,12.71 -11.02,18.36 -4.89,5.64 -11.04,10.19 -18.43,13.64 -7.39,3.45 -16.03,5.17 -25.93,5.17zm0 -26.08c4.8,0 9.09,-0.8 12.89,-2.4 3.8,-1.6 7.04,-3.85 9.74,-6.75 2.7,-2.9 4.74,-6.27 6.14,-10.11 1.4,-3.84 2.1,-8.02 2.1,-12.51 0,-4.8 -0.72,-9.14 -2.17,-13.04 -1.45,-3.89 -3.52,-7.24 -6.22,-10.04 -2.69,-2.8 -5.94,-4.95 -9.74,-6.44 -3.8,-1.5 -8.04,-2.25 -12.74,-2.25 -4.79,0 -9.09,0.75 -12.89,2.25 -3.8,1.5 -7.04,3.65 -9.74,6.44 -2.69,2.8 -4.74,6.14 -6.14,10.04 -1.4,3.9 -2.1,8.24 -2.1,13.04 0,4.49 0.7,8.67 2.1,12.51 1.4,3.85 3.45,7.22 6.14,10.11 2.7,2.9 5.95,5.15 9.74,6.75 3.8,1.6 8.09,2.4 12.89,2.4zm75.83 23.08l0 -110.29 27.87 0 0 110.29 -27.87 0zm65.94 0l-30.72 -46.45 30.27 0 32.52 46.45 -32.07 0zm-45.11 -33.57l0 -21.43 26.22 0c3.3,0 6.14,-0.65 8.54,-1.95 2.4,-1.3 4.27,-3.15 5.62,-5.54 1.35,-2.4 2.02,-5.2 2.02,-8.39 0,-3.3 -0.67,-6.14 -2.02,-8.54 -1.35,-2.4 -3.22,-4.25 -5.62,-5.54 -2.4,-1.3 -5.24,-1.95 -8.54,-1.95l-26.22 0 0 -23.38 24.58 0c9.49,0 17.68,1.42 24.58,4.27 6.89,2.85 12.19,7.04 15.88,12.59 3.7,5.55 5.54,12.41 5.54,20.61l0 2.4c0,8.19 -1.87,15.01 -5.62,20.45 -3.75,5.45 -9.04,9.54 -15.89,12.29 -6.84,2.75 -15.01,4.12 -24.5,4.12l-24.58 0zm80.17 33.57l35.06 -109.39 44.66 0 36.27 109.39 -28.77 0 -28.17 -89.91 7.94 3 -19.78 0 8.09 -3 -27.42 89.91 -27.87 0zm28.62 -25.32l8.39 -22.78 41.51 0 8.39 22.78 -58.29 0z"/>
  </g>
 </g>
</svg>
