<?xml version="1.0" encoding="UTF-8"?>
<!DOCTYPE svg PUBLIC "-//W3C//DTD SVG 1.1//EN" "http://www.w3.org/Graphics/SVG/1.1/DTD/svg11.dtd">
<!-- Creator: CorelDRAW -->
<svg xmlns="http://www.w3.org/2000/svg" xml:space="preserve" width="68.2141mm" height="28.7261mm" version="1.1" style="shape-rendering:geometricPrecision; text-rendering:geometricPrecision; image-rendering:optimizeQuality; fill-rule:evenodd; clip-rule:evenodd"
viewBox="0 0 4369.94 1840.25"
 xmlns:xlink="http://www.w3.org/1999/xlink"
 xmlns:xodm="http://www.corel.com/coreldraw/odm/2003">
 <defs>
  <style type="text/css">
   <![CDATA[
    .fil1 {fill:#A0AF14}
    .fil0 {fill:white;fill-rule:nonzero}
   ]]>
  </style>
 </defs>
 <g id="Слой_x0020_1">
  <metadata id="CorelCorpID_0Corel-Layer"/>
  <g id="_1722875398384">
   <path class="fil0" d="M1774.33 1063.85l0 -102.24 76.68 0c14.49,0 27.05,-2.88 37.7,-8.63 10.65,-5.75 18.96,-13.95 24.92,-24.61 5.97,-10.65 8.95,-23.21 8.95,-37.69 0,-14.91 -2.98,-27.69 -8.95,-38.34 -5.96,-10.65 -14.27,-18.74 -24.92,-24.29 -10.65,-5.53 -23.21,-8.31 -37.7,-8.31l-76.68 0 0 -102.24 73.49 0c40.05,0 74.66,6.71 103.84,20.13 29.18,13.42 51.65,32.7 67.42,57.83 15.76,25.14 23.64,55.17 23.64,90.1l0 10.23c0,34.5 -7.88,64.32 -23.64,89.46 -15.77,25.14 -38.24,44.52 -67.42,58.15 -29.17,13.63 -63.79,20.45 -103.84,20.45l-73.49 0zm-106.07 123.97l0 -470.31 118.85 0 0 470.31 -118.85 0zm660.72 12.77c-42.61,0 -79.67,-7.34 -111.19,-22.04 -31.52,-14.7 -57.72,-34.07 -78.6,-58.15 -20.87,-24.07 -36.43,-50.15 -46.64,-78.27 -10.23,-28.12 -15.34,-55.39 -15.34,-81.8l0 -14.05c0,-29.39 5.32,-58.26 15.98,-86.59 10.65,-28.33 26.62,-54 47.92,-77 21.3,-23 47.6,-41.32 78.91,-54.95 31.31,-13.64 67.63,-20.46 108.96,-20.46 40.89,0 76.99,6.82 108.3,20.46 31.31,13.63 57.62,31.94 78.92,54.95 21.29,23 37.38,48.67 48.25,77 10.86,28.32 16.28,57.19 16.28,86.59l0 14.05c0,26.41 -5.21,53.68 -15.66,81.8 -10.43,28.12 -26.09,54.2 -46.96,78.27 -20.88,24.07 -47.08,43.45 -78.6,58.15 -31.52,14.7 -68.38,22.04 -110.55,22.04zm0 -111.18c20.44,0 38.76,-3.41 54.95,-10.22 16.19,-6.82 30.03,-16.4 41.54,-28.76 11.5,-12.35 20.23,-26.73 26.19,-43.13 5.96,-16.39 8.94,-34.18 8.94,-53.35 0,-20.45 -3.08,-38.98 -9.26,-55.6 -6.18,-16.62 -15.02,-30.88 -26.52,-42.81 -11.51,-11.92 -25.36,-21.08 -41.54,-27.48 -16.19,-6.39 -34.3,-9.58 -54.31,-9.58 -20.45,0 -38.78,3.19 -54.96,9.58 -16.19,6.39 -30.03,15.55 -41.54,27.48 -11.51,11.93 -20.23,26.19 -26.2,42.81 -5.96,16.62 -8.94,35.15 -8.94,55.6 0,19.17 2.98,36.96 8.94,53.35 5.97,16.4 14.7,30.78 26.2,43.13 11.51,12.36 25.35,21.94 41.54,28.76 16.18,6.81 34.51,10.22 54.96,10.22zm323.33 98.41l0 -466.47 118.85 0 0 466.47 -118.85 0zm106.07 0l0 -103.52 189.14 0 0 103.52 -189.14 0zm414.07 12.77c-43.45,0 -79.98,-6.81 -109.58,-20.44 -29.61,-13.64 -51.97,-32.27 -67.09,-55.92 -15.13,-23.64 -22.69,-50.79 -22.69,-81.47l115.02 0c0,11.07 3.09,21.2 9.27,30.36 6.17,9.15 15.44,16.29 27.79,21.4 12.36,5.11 28.12,7.67 47.28,7.67 16.62,0 30.78,-2.13 42.5,-6.39 11.72,-4.26 20.66,-10.22 26.84,-17.89 6.17,-7.67 9.26,-16.83 9.26,-27.48 0,-13.63 -5.75,-24.17 -17.25,-31.63 -11.5,-7.46 -30.88,-12.25 -58.15,-14.38l-30.03 -2.56c-48.14,-4.25 -86.47,-19.38 -115.02,-45.37 -28.55,-25.98 -42.81,-60.49 -42.81,-103.51 0,-30.68 7.13,-56.87 21.41,-78.6 14.27,-21.73 34.39,-38.34 60.38,-49.85 25.98,-11.51 56.66,-17.26 92.02,-17.26 38.33,0 70.83,6.39 97.44,19.17 26.62,12.78 46.97,30.78 61.03,54 14.06,23.21 21.09,50.17 21.09,80.83l-115.02 0c0,-10.22 -2.55,-19.59 -7.66,-28.12 -5.12,-8.51 -12.46,-15.23 -22.05,-20.13 -9.58,-4.89 -21.19,-7.34 -34.82,-7.34 -12.78,0 -23.54,2.02 -32.27,6.07 -8.74,4.05 -15.34,9.7 -19.81,16.94 -4.47,7.25 -6.71,15.33 -6.71,24.29 0,11.92 4.05,22.15 12.15,30.67 8.08,8.52 22.15,13.63 42.17,15.34l30.03 2.56c34.94,2.98 65.82,10.54 92.66,22.68 26.84,12.15 47.92,28.65 63.26,49.52 15.34,20.88 23,46.43 23,76.68 0,30.24 -7.78,56.66 -23.33,79.24 -15.55,22.58 -37.7,40.05 -66.46,52.4 -28.75,12.35 -63.36,18.53 -103.84,18.53zm565.51 -12.77l-151.44 -217.9 -63.25 0 188.5 -248.57 136.74 0 -168.69 222.37 0 -45.37 201.29 289.47 -143.14 0zm-310.55 0l0 -466.47 118.85 0 0 466.47 -118.85 0zm447.93 0l149.52 -466.47 190.43 0 154.63 466.47 -122.69 0 -120.13 -383.4 33.86 12.78 -84.34 0 34.5 -12.78 -116.93 383.4 -118.85 0zm122.05 -107.99l35.79 -97.14 177 0 35.78 97.14 -248.57 0zm-2329.14 747.63l0 -466.47 118.85 0 0 466.47 -118.85 0zm106.07 -180.83l0 -97.13 173.17 0 0 97.13 -173.17 0zm0 -188.51l0 -97.12 180.2 0 0 97.12 -180.2 0zm251.77 369.34l0 -466.47 118.85 0 0 466.47 -118.85 0zm106.07 0l0 -103.52 189.14 0 0 103.52 -189.14 0zm471.59 12.78c-42.61,0 -79.67,-7.34 -111.19,-22.05 -31.52,-14.7 -57.72,-34.07 -78.6,-58.15 -20.87,-24.07 -36.43,-50.15 -46.64,-78.27 -10.23,-28.12 -15.34,-55.38 -15.34,-81.79l0 -14.06c0,-29.39 5.32,-58.26 15.98,-86.58 10.65,-28.33 26.62,-54 47.92,-77.01 21.3,-23 47.6,-41.32 78.91,-54.95 31.32,-13.63 67.63,-20.46 108.96,-20.46 40.89,0 77,6.82 108.3,20.46 31.31,13.63 57.62,31.94 78.92,54.95 21.29,23 37.38,48.67 48.25,77.01 10.86,28.32 16.28,57.19 16.28,86.58l0 14.06c0,26.41 -5.21,53.68 -15.66,81.79 -10.43,28.12 -26.09,54.2 -46.96,78.27 -20.88,24.07 -47.07,43.45 -78.6,58.15 -31.52,14.71 -68.38,22.05 -110.55,22.05zm0 -111.18c20.44,0 38.76,-3.41 54.95,-10.23 16.19,-6.81 30.03,-16.4 41.54,-28.76 11.5,-12.35 20.23,-26.73 26.19,-43.13 5.97,-16.4 8.94,-34.18 8.94,-53.36 0,-20.45 -3.07,-38.98 -9.26,-55.6 -6.18,-16.61 -15.02,-30.88 -26.52,-42.81 -11.51,-11.92 -25.35,-21.08 -41.54,-27.47 -16.19,-6.4 -34.29,-9.59 -54.31,-9.59 -20.45,0 -38.78,3.19 -54.96,9.59 -16.18,6.39 -30.03,15.55 -41.54,27.47 -11.5,11.93 -20.23,26.2 -26.19,42.81 -5.97,16.62 -8.95,35.15 -8.95,55.6 0,19.17 2.98,36.96 8.95,53.36 5.96,16.4 14.7,30.78 26.19,43.13 11.51,12.36 25.36,21.95 41.54,28.76 16.18,6.82 34.51,10.23 54.96,10.23zm323.33 98.4l0 -470.31 118.85 0 0 470.31 -118.85 0zm281.16 0l-130.99 -198.09 129.08 0 138.66 198.09 -136.75 0zm-192.35 -143.14l0 -91.37 111.83 0c14.05,0 26.19,-2.77 36.41,-8.3 10.23,-5.54 18.22,-13.42 23.97,-23.65 5.75,-10.22 8.63,-22.15 8.63,-35.79 0,-14.05 -2.88,-26.19 -8.63,-36.41 -5.75,-10.23 -13.73,-18.12 -23.97,-23.65 -10.22,-5.53 -22.36,-8.3 -36.41,-8.3l-111.83 0 0 -99.69 104.79 0c40.48,0 75.41,6.07 104.81,18.21 29.39,12.14 51.97,30.04 67.73,53.68 15.77,23.64 23.65,52.93 23.65,87.86l0 10.22c0,34.93 -7.99,64.01 -23.97,87.22 -15.97,23.22 -38.55,40.69 -67.74,52.4 -29.17,11.72 -64,17.57 -104.48,17.57l-104.79 0zm341.87 143.14l149.53 -466.47 190.42 0 154.63 466.47 -122.68 0 -120.14 -383.4 33.87 12.78 -84.35 0 34.5 -12.78 -116.93 383.4 -118.86 0zm122.05 -107.99l35.79 -97.13 177.01 0 35.77 97.13 -248.57 0z"/>
   <path class="fil1" d="M805.43 1675.35l-165.99 0 0 -269.11 474.53 -270.54 0 -189.28 -474.53 270.54 0 -189.28 474.53 -270.55 0 -757.12 -639.43 364.57 0 379.81 -474.53 -270.55 0 757.12 474.53 270.55 0 173.85 -309.62 0 0 164.9 1113.96 0 0 -529.44 -153.02 -87.25 -166 94.64 154.11 87.87 0 269.28 -143.63 0 0 -160.51 -164.9 0 0 160.51zm-165.99 -836.95l0 -378.56 309.62 -176.54 0 378.56 -309.62 176.54zm-164.9 95.26l0 378.57 -309.62 -176.54 0 -378.57 309.62 176.54z"/>
  </g>
 </g>
</svg>
